<mxfile host="app.diagrams.net" modified="2022-03-12T16:02:37.883Z" agent="5.0 (Windows NT 10.0; WOW64) AppleWebKit/537.36 (KHTML, like Gecko) Chrome/99.0.4844.51 Safari/537.36" etag="1b8GiHC3HUN3JK-PW7ni" version="17.0.0" type="github">
  <diagram id="sNLXvnmChGcaQ6COaLIs" name="Page-1">
    <mxGraphModel dx="948" dy="508" grid="1" gridSize="10" guides="1" tooltips="1" connect="1" arrows="1" fold="1" page="1" pageScale="1" pageWidth="827" pageHeight="1169" math="0" shadow="0">
      <root>
        <mxCell id="0" />
        <mxCell id="1" parent="0" />
        <mxCell id="5BkBxBPCYFakMQG9k8cQ-10" value="" style="edgeStyle=orthogonalEdgeStyle;rounded=0;orthogonalLoop=1;jettySize=auto;html=1;entryX=0;entryY=0.667;entryDx=0;entryDy=0;entryPerimeter=0;" edge="1" parent="1">
          <mxGeometry relative="1" as="geometry">
            <mxPoint x="300" y="414" as="sourcePoint" />
            <mxPoint x="300" y="264.02" as="targetPoint" />
            <Array as="points">
              <mxPoint x="240" y="414" />
              <mxPoint x="240" y="264" />
            </Array>
          </mxGeometry>
        </mxCell>
        <mxCell id="5BkBxBPCYFakMQG9k8cQ-11" value="动作" style="edgeLabel;html=1;align=center;verticalAlign=middle;resizable=0;points=[];" vertex="1" connectable="0" parent="5BkBxBPCYFakMQG9k8cQ-10">
          <mxGeometry x="0.0914" y="3" relative="1" as="geometry">
            <mxPoint as="offset" />
          </mxGeometry>
        </mxCell>
        <mxCell id="5BkBxBPCYFakMQG9k8cQ-1" value="智能体" style="rounded=1;whiteSpace=wrap;html=1;" vertex="1" parent="1">
          <mxGeometry x="300" y="380" width="120" height="60" as="geometry" />
        </mxCell>
        <mxCell id="5BkBxBPCYFakMQG9k8cQ-3" value="" style="edgeStyle=orthogonalEdgeStyle;rounded=0;orthogonalLoop=1;jettySize=auto;html=1;" edge="1" parent="1" source="5BkBxBPCYFakMQG9k8cQ-2" target="5BkBxBPCYFakMQG9k8cQ-1">
          <mxGeometry relative="1" as="geometry" />
        </mxCell>
        <mxCell id="5BkBxBPCYFakMQG9k8cQ-5" value="回报" style="edgeLabel;html=1;align=center;verticalAlign=middle;resizable=0;points=[];" vertex="1" connectable="0" parent="5BkBxBPCYFakMQG9k8cQ-3">
          <mxGeometry x="-0.1852" y="-1" relative="1" as="geometry">
            <mxPoint as="offset" />
          </mxGeometry>
        </mxCell>
        <mxCell id="5BkBxBPCYFakMQG9k8cQ-7" value="" style="edgeStyle=orthogonalEdgeStyle;rounded=0;orthogonalLoop=1;jettySize=auto;html=1;entryX=1.022;entryY=0.578;entryDx=0;entryDy=0;entryPerimeter=0;" edge="1" parent="1">
          <mxGeometry relative="1" as="geometry">
            <mxPoint x="420" y="261" as="sourcePoint" />
            <mxPoint x="422.6400000000001" y="415.67999999999995" as="targetPoint" />
            <Array as="points">
              <mxPoint x="420" y="260" />
              <mxPoint x="480" y="260" />
              <mxPoint x="480" y="416" />
            </Array>
          </mxGeometry>
        </mxCell>
        <mxCell id="5BkBxBPCYFakMQG9k8cQ-8" value="状态" style="edgeLabel;html=1;align=center;verticalAlign=middle;resizable=0;points=[];" vertex="1" connectable="0" parent="5BkBxBPCYFakMQG9k8cQ-7">
          <mxGeometry x="-0.1097" y="-1" relative="1" as="geometry">
            <mxPoint y="1" as="offset" />
          </mxGeometry>
        </mxCell>
        <mxCell id="5BkBxBPCYFakMQG9k8cQ-2" value="环境" style="rounded=1;whiteSpace=wrap;html=1;" vertex="1" parent="1">
          <mxGeometry x="300" y="230" width="120" height="60" as="geometry" />
        </mxCell>
      </root>
    </mxGraphModel>
  </diagram>
</mxfile>
